<?xml version="1.0" encoding="UTF-8" standalone="no"?>
<svg
   xmlns:dc="http://purl.org/dc/elements/1.1/"
   xmlns:cc="http://creativecommons.org/ns#"
   xmlns:rdf="http://www.w3.org/1999/02/22-rdf-syntax-ns#"
   xmlns:svg="http://www.w3.org/2000/svg"
   xmlns="http://www.w3.org/2000/svg"
   xmlns:sodipodi="http://sodipodi.sourceforge.net/DTD/sodipodi-0.dtd"
   xmlns:inkscape="http://www.inkscape.org/namespaces/inkscape"
   width="63.495899mm"
   height="52.333645mm"
   viewBox="0 0 63.495899 52.333645"
   version="1.1"
   id="svg220"
   sodipodi:docname="svelteEGY-3.svg"
   inkscape:version="1.0.2 (e86c8708, 2021-01-15)">
  <defs
     id="defs214" />
  <sodipodi:namedview
     id="base"
     pagecolor="#ffffff"
     bordercolor="#666666"
     borderopacity="1.0"
     inkscape:pageopacity="0.0"
     inkscape:pageshadow="2"
     inkscape:zoom="0.30995739"
     inkscape:cx="1093.328"
     inkscape:cy="255.86498"
     inkscape:document-units="mm"
     inkscape:current-layer="layer1"
     inkscape:document-rotation="0"
     showgrid="false"
     inkscape:pagecheckerboard="true"
     inkscape:window-width="1252"
     inkscape:window-height="943"
     inkscape:window-x="0"
     inkscape:window-y="25"
     inkscape:window-maximized="0"
     fit-margin-top="0"
     fit-margin-left="0"
     fit-margin-right="0"
     fit-margin-bottom="0" />
  <metadata
     id="metadata217">
    <rdf:RDF>
      <cc:Work
         rdf:about="">
        <dc:format>image/svg+xml</dc:format>
        <dc:type
           rdf:resource="http://purl.org/dc/dcmitype/StillImage" />
        <dc:title></dc:title>
      </cc:Work>
    </rdf:RDF>
  </metadata>
  <g
     inkscape:label="Lager 1"
     inkscape:groupmode="layer"
     id="layer1"
     transform="translate(-74.450531,-124.46456)">
    <path
       class="a"
       d="m 135.5657,137.79978 c -4.16626,-5.97318 -12.39653,-7.74356 -18.34468,-3.94676 l -10.45033,6.67181 a 11.98758,12.008534 0 0 0 -5.42966,8.03983 12.827405,12.849827 0 0 0 -0.20082,2.24589 12.666742,12.688884 0 0 0 1.46056,5.87441 12.049655,12.070717 0 0 0 -1.79284,4.48811 12.779937,12.802277 0 0 0 2.19084,9.67853 c 4.16626,5.97317 12.41481,7.74354 18.3447,3.94676 l 10.43937,-6.67182 a 11.962021,11.982931 0 0 0 5.41504,-8.04714 12.444007,12.46576 0 0 0 0.20083,-2.24223 12.677696,12.699858 0 0 0 -1.4423,-5.8671 12.049655,12.070717 0 0 0 1.79284,-4.48446 13.145077,13.168055 0 0 0 0.19718,-2.24222 12.754377,12.776672 0 0 0 -2.38073,-7.4363 z m 0,0 z"
       id="path82"
       style="fill:#ff3e00;stroke-width:0.36546" />
    <path
       class="b"
       d="m 116.19863,171.41489 a 8.3763348,8.3909774 0 0 1 -2.08861,0.26702 8.2887012,8.3031906 0 0 1 -6.81719,-3.57732 7.6679615,7.6813656 0 0 1 -1.43135,-4.47348 7.8870458,7.9008331 0 0 1 0.11685,-1.34607 7.4926938,7.5057915 0 0 1 0.25195,-0.97663 l 0.19717,-0.59987 0.5331,0.406 a 13.557686,13.581386 0 0 0 4.08958,2.04838 l 0.38705,0.11704 -0.0365,0.38772 c 0,0.0658 0,0.13535 0,0.20118 a 2.3222968,2.3263565 0 0 0 0.43087,1.35339 2.4902618,2.494615 0 0 0 2.05209,1.09733 2.4281879,2.4324323 0 0 0 0.62804,-0.0805 2.2930856,2.2970942 0 0 0 0.64265,-0.28164 l 10.43939,-6.70474 a 2.1908461,2.1946759 0 0 0 1.01874,-1.86181 2.3186455,2.3226986 0 0 0 -0.44182,-1.34973 2.5012161,2.5055884 0 0 0 -2.05574,-1.07539 2.4281879,2.4324323 0 0 0 -0.62805,0.0805 2.1908461,2.1946759 0 0 0 -0.639,0.28165 l -3.98003,2.54582 a 7.6898701,7.7033123 0 0 1 -2.12147,0.93274 8.4201519,8.4348708 0 0 1 -2.0886,0.26702 8.2996552,8.314164 0 0 1 -6.8172,-3.57366 7.6862187,7.6996549 0 0 1 -1.43135,-4.47348 7.8870458,7.9008331 0 0 1 0.11685,-1.34608 7.237095,7.2497459 0 0 1 3.25706,-4.83925 l 10.45033,-6.66817 a 7.6679615,7.6813656 0 0 1 2.12147,-0.93638 8.3982433,8.4129241 0 0 1 2.08861,-0.26337 8.303307,8.3178214 0 0 1 6.83909,3.57001 7.6862187,7.6996549 0 0 1 1.4131,4.47714 7.9308629,7.944727 0 0 1 -0.11685,1.34972 7.4926938,7.5057915 0 0 1 -0.25195,0.97663 l -0.19717,0.59988 -0.5331,-0.39139 a 13.473704,13.497258 0 0 0 -4.08958,-2.04836 l -0.38705,-0.1207 0.0365,-0.38773 c 0,-0.0658 0,-0.13534 0,-0.20118 a 2.3442054,2.3483031 0 0 0 -0.43088,-1.35704 2.5012161,2.5055884 0 0 0 -2.05209,-1.07539 2.4281879,2.4324323 0 0 0 -0.62074,0.0952 2.1506807,2.1544402 0 0 0 -0.64265,0.28164 l -10.45033,6.66817 a 2.1908461,2.1946759 0 0 0 -0.98223,1.46311 2.5267758,2.5311928 0 0 0 -0.0474,0.38773 2.3186455,2.3226986 0 0 0 0.43087,1.34973 2.4975646,2.5019306 0 0 0 2.05209,1.07539 2.4281879,2.4324323 0 0 0 0.62804,-0.0805 2.1908461,2.1946759 0 0 0 0.64265,-0.28165 l 3.98734,-2.56046 a 7.6424017,7.6557609 0 0 1 2.12147,-0.93273 8.3982433,8.4129241 0 0 1 2.08861,-0.26702 8.303307,8.3178214 0 0 1 6.82083,3.57367 7.6862187,7.6996549 0 0 1 1.43135,4.47348 7.5365108,7.5496854 0 0 1 -0.12049,1.36069 7.2224897,7.2351152 0 0 1 -3.25705,4.83927 l -10.43208,6.66815 a 7.6679615,7.6813656 0 0 1 -2.12513,0.9364 z m 0,0 z"
       id="path84"
       style="fill:#e2e3db;stroke-width:0.36546" />
    <path
       style="fill:#fefefe;stroke-width:0.132291"
       d="m 74.669472,171.58116 c -0.120418,-0.13306 -0.218941,-0.43494 -0.218941,-0.67085 0,-0.33864 2.969822,-5.22363 14.108519,-23.20677 7.759684,-12.52782 14.19829,-22.88203 14.308,-23.00936 0.23495,-0.27267 1.06137,-0.31225 1.38103,-0.0661 0.38206,0.29414 12.32004,18.80583 12.3799,19.19695 0.11959,0.78138 -0.64542,0.8232 -1.37169,0.075 -2.39619,-2.46857 -6.53603,-4.09248 -10.42908,-4.09093 -6.49841,0.002 -11.682053,3.69522 -13.703968,9.76221 -0.641651,1.92535 -0.836893,3.28892 -0.761523,5.31851 0.08426,2.26886 0.486402,3.87605 1.474735,5.89382 1.570422,3.20617 3.832173,5.49745 6.851222,6.94068 1.758944,0.84084 2.910914,1.0927 4.999314,1.09301 7.47981,0.001 13.09101,-4.22569 14.22237,-10.71343 0.10858,-0.62264 0.19742,-1.24334 0.19742,-1.37933 0,-0.23955 -0.35254,-0.24725 -11.31519,-0.24725 -12.095316,0 -12.008605,0.005 -12.354369,-0.64157 -0.08025,-0.14994 -0.14294,-0.98328 -0.14294,-1.89999 0,-1.78443 0.08964,-2.06176 0.755408,-2.33713 0.272273,-0.11262 3.751983,-0.14342 13.267511,-0.11745 l 12.89843,0.0352 0.40657,0.29001 c 0.2696,0.19232 2.35304,3.38681 6.18463,9.48275 6.11027,9.72126 6.13709,9.77122 5.53615,10.31507 -0.22357,0.20233 -2.45016,0.21894 -29.34825,0.21894 -28.029717,0 -29.114415,-0.009 -29.325258,-0.24193 z"
       id="path62" />
  </g>
</svg>
